<svg xmlns="http://www.w3.org/2000/svg" width="940" height="788" viewBox="0 0 940 788">
<g>
<path d="M 244.90 389.91 C238.13,394.43 233.74,395.07 226.66,392.54 C221.73,390.79 219.17,388.33 213.10,379.56 C204.58,367.23 204.46,366.41 204.74,321.50 C204.88,300.05 205.24,281.29 205.56,279.80 C206.05,277.53 207.04,276.84 211.82,275.45 C219.52,273.21 230.32,270.99 230.87,271.53 C231.11,271.78 230.35,275.92 229.17,280.74 C225.95,293.93 225.51,299.16 227.32,302.65 C229.97,307.78 237.61,315.48 245.35,320.83 C252.91,326.06 267.45,331.81 270.32,330.71 C271.12,330.40 273.79,326.18 276.25,321.32 C281.07,311.81 286.93,301.56 308.43,265.00 C324.23,238.14 335.90,215.51 336.71,210.16 C338.16,200.49 350.20,185.49 370.55,168.01 C391.27,150.21 408.24,140.15 421.28,137.95 C438.93,134.98 464.00,141.47 464.00,149.02 C464.00,151.07 462.82,151.56 455.50,152.59 C448.58,153.55 444.15,155.24 435.97,160.02 C423.32,167.40 408.77,179.23 392.92,195.00 C371.67,216.15 364.35,225.84 322.68,288.00 C295.62,328.38 292.80,333.13 291.57,340.52 C290.98,344.06 291.23,344.85 293.70,347.21 C297.28,350.64 300.81,352.08 317.71,357.03 C335.09,362.11 345.83,363.91 363.51,364.68 C403.92,366.43 451.75,355.88 492.00,336.33 C512.76,326.25 521.72,322.71 524.63,323.44 C527.56,324.18 538.64,332.61 539.44,334.71 C539.87,335.84 539.31,337.04 537.80,338.25 C534.56,340.83 517.73,349.30 507.30,353.59 C502.46,355.59 498.05,357.57 497.50,358.01 C496.95,358.44 490.65,360.66 483.50,362.94 C448.96,373.96 406.13,378.49 369.00,375.06 C338.54,372.24 317.24,367.00 287.63,355.02 L 279.76 351.84 L 276.63 355.66 C260.65,375.16 250.37,386.25 244.90,389.91 ZM 214.92 252.59 C215.47,253.13 194.08,252.89 191.50,252.33 C170.00,247.65 149.57,235.75 143.79,224.55 C141.91,220.90 141.79,219.33 142.28,204.55 C142.91,185.24 144.40,179.00 150.40,170.58 C169.89,143.30 214.14,119.80 273.85,105.04 C341.77,88.24 431.84,81.89 494.00,89.49 C563.03,97.94 601.77,113.66 623.16,141.90 C633.39,155.41 638.29,169.45 640.08,190.41 C641.78,210.40 640.10,220.95 634.40,225.95 C629.02,230.67 609.00,234.21 609.00,230.44 C609.00,229.52 608.53,229.17 607.85,229.60 C607.12,230.04 606.96,229.87 607.41,229.14 C607.81,228.49 608.49,228.19 608.93,228.46 C610.97,229.72 614.98,201.51 615.25,184.00 C615.55,164.62 610.84,153.83 594.30,135.96 C584.45,125.31 569.63,114.40 557.91,109.15 C537.76,100.14 496.34,95.31 448.00,96.33 C418.51,96.95 399.94,98.67 370.34,103.49 C338.20,108.73 310.10,115.25 279.00,124.66 C274.33,126.07 268.25,127.91 265.50,128.74 C255.42,131.78 237.24,139.47 227.50,144.82 C206.01,156.61 180.98,174.66 171.51,185.20 C167.20,189.99 166.86,190.74 167.42,194.21 C167.77,196.42 167.62,198.00 167.05,198.00 C164.27,198.00 161.39,212.96 162.48,221.73 C163.82,232.38 171.92,237.88 200.50,247.48 C208.20,250.07 214.69,252.37 214.92,252.59 ZM 642.21 617.39 C638.30,618.27 633.39,618.99 631.30,618.98 C620.22,618.91 604.00,605.00 604.00,595.55 C604.00,587.21 613.01,574.47 620.71,571.93 C625.42,570.38 641.07,571.27 646.99,573.44 C655.61,576.59 660.47,583.66 661.63,594.76 C662.65,604.48 659.33,611.57 652.40,614.47 C650.70,615.19 646.11,616.50 642.21,617.39 ZM 320.00 615.92 C313.63,619.31 308.78,619.73 301.00,617.57 C287.21,613.73 279.00,604.75 279.00,593.48 C279.00,585.24 284.25,579.01 294.67,574.91 C299.36,573.06 302.45,572.61 310.50,572.60 C319.15,572.59 321.26,572.94 326.09,575.17 C333.02,578.36 338.55,583.77 340.06,588.81 C341.06,592.14 340.92,593.32 338.96,597.87 C336.31,604.02 328.67,611.30 320.00,615.92 ZM 585.67 303.57 C581.37,306.81 577.47,308.97 575.92,308.98 C572.17,309.01 564.56,301.80 565.31,298.93 C565.72,297.36 565.35,296.64 563.94,296.27 C561.31,295.59 561.47,294.85 565.31,289.83 C575.47,276.56 592.07,263.91 608.00,257.30 C612.12,255.59 617.72,253.06 620.42,251.69 C629.24,247.22 630.25,250.47 623.90,262.85 C619.60,271.23 606.75,286.51 597.79,293.88 C595.20,296.01 593.29,298.03 593.54,298.38 C593.79,298.72 593.74,298.82 593.42,298.59 C593.11,298.37 589.62,300.61 585.67,303.57 ZM 315.75 547.53 C307.58,551.34 296.75,550.41 290.68,545.38 C277.45,534.41 276.17,529.57 284.09,520.55 C289.64,514.23 294.09,512.54 305.00,512.58 C313.28,512.61 315.16,512.96 319.65,515.27 C325.03,518.05 330.66,523.91 331.64,527.75 C331.96,528.99 331.92,531.17 331.57,532.59 C330.61,536.39 321.80,544.72 315.75,547.53 ZM 561.26 616.41 C555.07,619.53 553.53,619.83 549.92,618.58 C540.81,615.45 529.00,603.72 529.00,597.81 C529.00,588.04 541.32,577.87 553.43,577.65 C558.40,577.56 560.47,578.08 564.86,580.49 C571.14,583.95 576.61,589.94 577.97,594.86 C579.88,601.77 573.21,610.37 561.26,616.41 ZM 229.05 376.05 C235.85,382.85 248.82,370.42 256.51,349.75 L 258.27 345.00 L 255.56 341.09 C251.16,334.73 233.63,322.05 229.20,322.01 C228.48,322.01 227.14,323.69 226.22,325.75 C224.85,328.82 224.54,332.79 224.55,347.50 C224.56,366.47 225.51,372.51 229.05,376.05 ZM 493.57 600.62 C490.78,601.92 487.56,602.98 486.42,602.99 C483.30,603.00 473.96,595.99 471.79,592.00 C466.26,581.85 475.35,571.00 489.40,571.00 C498.02,571.00 503.64,573.93 506.24,579.80 C507.93,583.62 508.06,584.87 507.10,588.06 C505.76,592.54 500.56,597.36 493.57,600.62 ZM 325.30 493.93 C319.55,495.53 316.00,495.22 310.50,492.62 C298.30,486.87 295.87,475.95 305.47,470.02 C310.58,466.86 323.06,465.30 328.39,467.15 C333.89,469.06 336.24,473.63 335.74,481.40 C335.40,486.50 334.93,487.68 332.23,490.09 C330.51,491.62 327.40,493.35 325.30,493.93 ZM 452.10 575.71 C445.54,580.13 435.40,577.63 431.00,570.50 C428.08,565.77 428.95,562.73 434.20,559.25 C437.62,556.99 439.46,556.50 444.61,556.50 C450.15,556.50 451.22,556.83 453.89,559.39 C459.49,564.76 458.78,571.22 452.10,575.71 ZM 353.08 453.08 C350.74,455.41 349.28,456.00 345.79,456.00 C336.53,456.00 327.71,448.29 329.37,441.66 C331.31,433.94 349.70,431.44 354.46,438.25 C355.33,439.49 356.00,442.55 356.00,445.30 C356.00,449.33 355.50,450.65 353.08,453.08 ZM 574.45 287.91 C575.29,289.28 589.28,289.35 593.94,288.02 C597.06,287.12 598.95,285.56 598.98,283.83 C599.03,281.71 593.51,277.12 589.59,276.03 C585.33,274.83 584.95,274.90 581.16,277.63 C576.91,280.68 573.35,286.14 574.45,287.91 ZM 372.25 428.19 C369.18,430.83 367.27,430.93 362.83,428.69 C357.94,426.22 356.75,423.03 359.57,419.92 C361.59,417.69 370.79,417.19 372.80,419.20 C374.59,420.99 374.26,426.47 372.25,428.19 ZM 420.73 550.73 C417.21,553.95 414.65,554.30 411.66,551.94 C406.47,547.87 409.96,542.00 417.57,542.00 C424.34,542.00 425.82,546.08 420.73,550.73 ZM 517.13 323.25 C516.37,324.21 515.29,325.00 514.71,325.00 C514.14,325.00 513.85,324.87 514.08,324.72 C514.31,324.56 515.40,323.77 516.50,322.97 C518.35,321.61 518.40,321.63 517.13,323.25 Z" fill="rgb(52,21,126)" data-index="0"></path>
<path d="M 585.67 303.57 C589.62,300.61 593.11,298.37 593.42,298.59 C593.52,298.66 593.59,298.69 593.63,298.71 L 593.57 298.77 C586.93,305.52 581.50,311.60 581.50,312.27 C581.50,314.99 604.75,323.73 639.00,333.89 C666.39,342.02 689.71,350.21 700.46,355.48 C717.99,364.08 740.52,382.25 743.22,389.96 C743.90,391.91 744.47,398.00 744.48,403.50 C744.50,412.21 744.11,414.53 741.50,421.45 C738.85,428.46 737.50,430.41 730.00,438.05 C715.92,452.39 691.52,467.12 655.71,482.88 C635.04,491.97 595.52,505.12 581.91,507.43 C580.03,507.75 568.60,509.79 556.50,511.97 C544.40,514.15 527.30,516.84 518.50,517.95 C480.96,522.68 450.77,520.73 426.94,512.04 C395.69,500.63 388.08,481.17 403.28,451.50 C408.49,441.32 422.39,427.06 435.89,418.03 C468.54,396.21 515.38,381.97 554.30,382.02 C576.11,382.04 572.44,385.77 547.95,388.47 C531.54,390.28 524.44,391.76 511.00,396.15 C466.09,410.84 432.15,437.22 426.16,462.09 C424.84,467.55 425.77,471.62 429.60,477.14 C440.54,492.93 460.45,497.84 514.50,498.11 C544.82,498.25 564.24,495.46 605.00,485.10 C625.63,479.85 637.24,476.09 656.92,468.29 C688.19,455.89 709.37,442.23 721.35,426.76 C734.05,410.37 727.34,396.75 699.84,383.11 C680.08,373.32 656.75,365.72 599.50,350.45 C585.75,346.78 569.33,342.22 563.00,340.30 C547.19,335.51 545.45,335.74 525.50,345.24 C524.11,345.90 522.71,346.57 521.31,347.23 C528.83,343.56 535.83,339.82 537.80,338.25 C539.31,337.04 539.87,335.84 539.44,334.71 C538.64,332.61 527.56,324.18 524.63,323.44 C521.72,322.71 512.76,326.25 492.00,336.33 C490.33,337.15 488.64,337.94 486.94,338.73 C498.96,333.06 511.39,326.48 515.49,323.30 C522.61,317.78 523.35,315.85 520.78,309.58 C518.44,303.85 517.49,296.53 518.44,291.49 C520.33,281.40 536.93,267.49 561.00,255.83 C598.33,237.76 598.20,237.83 604.63,231.32 C610.25,225.63 610.84,224.60 611.87,218.81 C612.04,217.81 612.21,216.81 612.38,215.82 C611.18,223.58 609.85,229.03 608.93,228.46 C608.49,228.19 607.81,228.49 607.41,229.14 C606.96,229.87 607.12,230.04 607.85,229.60 C608.53,229.17 609.00,229.52 609.00,230.44 C609.00,234.21 629.02,230.67 634.40,225.95 C638.80,222.09 640.80,214.93 640.71,202.66 C640.83,206.35 640.89,210.25 640.90,214.38 C640.91,221.46 641.15,227.49 641.43,227.76 C641.71,228.04 646.34,227.55 651.72,226.66 C667.67,224.02 714.25,222.48 737.11,223.84 C771.65,225.89 777.44,228.85 777.48,244.50 C777.50,250.67 777.01,252.52 773.39,260.06 C765.51,276.45 756.89,286.75 749.09,289.09 C745.90,290.05 744.75,290.04 743.55,289.04 C741.39,287.25 742.77,285.07 752.57,274.86 C764.21,262.72 765.77,256.03 758.90,247.69 C752.04,239.38 743.36,237.50 716.00,238.43 C689.19,239.34 658.83,241.65 650.87,243.39 C637.67,246.28 629.57,252.54 622.64,265.18 C620.48,269.12 617.67,273.01 612.43,278.93 C617.37,273.08 621.72,267.09 623.90,262.85 C630.25,250.47 629.24,247.22 620.42,251.69 C617.72,253.06 612.12,255.59 608.00,257.30 C592.07,263.91 575.47,276.56 565.31,289.83 C561.47,294.85 561.31,295.59 563.94,296.27 C565.35,296.64 565.72,297.36 565.31,298.93 C564.56,301.80 572.17,309.01 575.92,308.98 C577.47,308.97 581.37,306.81 585.67,303.57 ZM 479.85 668.98 C466.08,675.23 442.05,664.92 437.87,650.95 C435.45,642.87 441.74,633.20 453.57,626.85 C474.24,615.75 500.69,627.29 498.71,646.54 C497.80,655.35 490.35,664.22 479.85,668.98 ZM 416.72 621.40 C410.62,623.44 405.80,623.38 399.49,621.20 C392.63,618.83 387.51,614.68 384.97,609.43 C381.51,602.29 384.06,595.14 391.94,589.92 C398.23,585.75 403.20,584.50 413.50,584.52 C427.54,584.53 432.32,588.47 432.32,600.00 C432.33,610.65 427.00,617.95 416.72,621.40 ZM 385.99 570.51 C383.55,572.85 382.11,573.31 376.31,573.62 C366.16,574.16 358.23,571.03 355.15,565.27 C354.52,564.10 354.00,561.03 354.00,558.47 C354.00,554.52 354.51,553.29 357.30,550.50 C361.05,546.75 366.20,545.01 373.62,545.01 C384.22,544.99 389.32,547.88 390.58,554.59 C391.53,559.64 389.31,567.32 385.99,570.51 ZM 367.70 528.37 C365.94,529.69 363.06,530.48 359.26,530.70 C346.75,531.41 339.71,522.25 346.53,514.14 C353.20,506.22 369.07,508.52 372.99,517.97 C374.15,520.77 374.07,521.42 372.34,523.75 C371.26,525.20 369.17,527.28 367.70,528.37 ZM 548.20 296.80 C549.90,298.50 551.11,298.31 554.80,295.75 C559.26,292.66 580.00,270.19 580.00,268.45 C580.00,266.81 578.11,267.39 569.81,271.59 C553.01,280.07 543.07,291.67 548.20,296.80 ZM 574.45 287.91 C573.35,286.14 576.91,280.68 581.16,277.63 C584.95,274.90 585.33,274.83 589.59,276.03 C593.51,277.12 599.03,281.71 598.98,283.83 C598.95,285.56 597.06,287.12 593.94,288.02 C589.28,289.35 575.29,289.28 574.45,287.91 ZM 362.55 495.55 C359.86,498.23 355.41,498.78 352.74,496.75 C350.15,494.79 348.91,490.51 350.35,488.54 C351.73,486.65 358.59,485.43 362.44,486.40 C365.92,487.27 365.98,492.11 362.55,495.55 ZM 446.69 353.68 C418.55,361.85 389.50,365.81 363.51,364.68 C355.43,364.33 348.80,363.76 342.32,362.76 C349.12,363.79 356.12,364.34 365.00,364.66 C390.31,365.57 417.93,361.84 446.69,353.68 ZM 602.01 290.10 C599.55,292.66 596.80,295.49 593.70,298.64 C593.68,298.58 593.63,298.50 593.54,298.38 C593.29,298.03 595.20,296.01 597.79,293.88 C599.13,292.78 600.55,291.50 602.01,290.10 ZM 517.13 323.25 C518.40,321.63 518.35,321.61 516.50,322.97 C515.40,323.77 514.31,324.56 514.08,324.72 C513.85,324.87 514.14,325.00 514.71,325.00 C515.29,325.00 516.37,324.21 517.13,323.25 ZM 143.79 224.55 C149.13,234.90 167.00,245.85 186.65,251.15 C185.23,250.83 183.88,250.46 182.51,250.02 C163.80,244.00 148.70,234.06 143.79,224.55 ZM 250.28 385.42 C256.22,379.79 264.88,369.99 276.63,355.66 C264.81,370.09 256.65,379.53 250.28,385.42 ZM 615.19 178.63 C614.94,173.39 614.30,169.01 613.26,165.78 C611.79,161.25 610.58,158.13 608.98,155.15 C613.04,162.51 614.83,169.68 615.19,178.63 ZM 596.39 138.24 C591.26,132.60 585.47,127.25 579.48,122.55 C584.91,126.75 590.06,131.38 594.30,135.96 C595.02,136.73 595.71,137.49 596.39,138.24 ZM 214.90 252.64 C214.95,252.67 214.99,252.69 215.00,252.70 C215.20,252.92 212.17,252.98 207.67,252.90 C211.52,252.90 214.61,252.82 214.90,252.64 ZM 508.58 353.06 C506.55,353.96 504.95,354.65 504.00,355.02 C503.62,355.17 503.23,355.32 502.85,355.48 C504.21,354.88 505.73,354.24 507.30,353.59 C507.72,353.42 508.14,353.24 508.58,353.06 ZM 223.95 391.36 C224.79,391.81 225.67,392.19 226.66,392.54 C227.33,392.78 227.97,392.99 228.60,393.17 C228.33,393.10 228.06,393.03 227.78,392.96 C226.42,392.58 225.16,392.07 223.95,391.36 ZM 606.54 151.10 C605.77,149.94 604.90,148.71 603.90,147.36 C602.84,145.94 601.74,144.52 600.59,143.11 C602.88,145.89 604.85,148.53 606.54,151.10 ZM 632.80 158.27 C630.31,152.48 627.14,147.15 623.16,141.90 C627.13,147.14 630.30,152.43 632.80,158.27 Z" fill="rgb(102,32,133)" data-index="1" style="opacity: 1;"></path>
<path d="M 214.92 252.59 C214.69,252.37 208.20,250.07 200.50,247.48 C171.92,237.88 163.82,232.38 162.48,221.73 C161.39,212.96 164.27,198.00 167.05,198.00 C167.62,198.00 167.77,196.42 167.42,194.21 C166.86,190.74 167.20,189.99 171.51,185.20 C180.98,174.66 206.01,156.61 227.50,144.82 C237.24,139.47 255.42,131.78 265.50,128.74 C268.25,127.91 274.33,126.07 279.00,124.66 L 279.12 124.62 C273.79,126.43 270.53,127.91 270.22,128.84 C269.93,129.70 270.54,129.91 272.15,129.53 C326.85,116.53 345.97,113.12 389.50,108.55 C424.62,104.87 478.02,104.11 504.00,106.92 C509.23,107.48 520.47,108.66 529.00,109.53 C537.53,110.41 545.40,111.34 546.50,111.60 C548.05,111.98 547.94,111.74 546.00,110.56 C541.43,107.76 519.67,101.28 507.00,98.94 C503.39,98.27 500.54,97.80 497.33,97.46 C523.67,99.38 545.10,103.42 557.91,109.15 C564.59,112.14 572.28,116.97 579.48,122.55 C585.47,127.25 591.26,132.60 596.39,138.24 C597.89,139.92 599.29,141.54 600.59,143.11 C601.74,144.52 602.84,145.94 603.90,147.36 C604.36,148.00 604.80,148.60 605.22,149.18 C599.54,141.33 591.39,133.00 588.74,133.00 C587.75,133.00 584.26,131.65 580.99,129.99 C571.32,125.12 559.83,121.83 539.50,118.12 C509.99,112.75 467.92,112.54 423.00,117.56 C383.60,121.96 347.19,129.86 308.00,142.52 C242.79,163.60 187.06,203.57 187.01,229.30 C186.99,239.29 193.38,245.02 211.22,251.00 L 217.95 253.25 L 215.57 255.13 C214.26,256.16 211.98,257.00 210.51,257.00 C205.89,257.00 208.25,259.29 216.58,262.88 C234.28,270.52 237.00,271.93 237.00,273.44 C237.00,274.29 235.00,277.91 232.55,281.48 C229.68,285.67 227.56,289.92 226.59,293.28 C227.02,290.13 227.87,286.09 229.17,280.74 C230.35,275.92 231.11,271.78 230.87,271.53 C230.32,270.99 219.52,273.21 211.82,275.45 C207.04,276.84 206.05,277.53 205.56,279.80 C205.24,281.29 204.88,300.05 204.74,321.50 C204.65,336.39 204.60,346.43 204.89,353.65 C204.58,347.59 204.48,339.61 204.38,328.58 C204.21,311.02 203.79,295.33 203.43,293.70 C203.08,292.08 201.85,289.17 200.71,287.23 L 198.63 283.71 L 201.47 278.47 C203.11,275.44 204.04,272.53 203.67,271.57 C203.32,270.66 199.54,268.32 195.27,266.37 C182.88,260.72 182.04,260.15 171.00,249.94 C165.23,244.60 158.40,238.91 155.84,237.30 C153.27,235.68 148.66,232.06 145.59,229.25 C140.80,224.88 140.00,223.64 140.00,220.57 C140.00,218.61 140.39,217.00 140.86,217.00 C141.34,217.00 141.97,210.59 142.28,202.75 C142.51,196.85 142.85,192.19 143.43,188.28 C142.83,192.52 142.50,197.71 142.28,204.55 C141.79,219.33 141.91,220.90 143.79,224.55 C148.70,234.06 163.80,244.00 182.51,250.02 C183.88,250.46 185.23,250.83 186.65,251.15 C188.26,251.58 189.88,251.98 191.50,252.33 C193.05,252.67 201.38,252.89 207.67,252.90 C212.17,252.98 215.20,252.92 215.00,252.70 C214.99,252.69 214.95,252.67 214.90,252.64 C214.93,252.63 214.93,252.61 214.92,252.59 ZM 244.90 389.91 C246.35,388.94 248.14,387.45 250.28,385.42 C256.65,379.53 264.81,370.09 276.63,355.66 L 279.76 351.84 L 287.63 355.02 C317.24,367.00 338.54,372.24 369.00,375.06 C374.55,375.57 380.23,375.91 386.00,376.07 C384.33,376.07 382.58,376.06 380.75,376.06 C360.55,376.01 346.00,376.35 346.00,376.88 C346.00,378.13 362.53,381.75 375.50,383.33 C389.42,385.04 422.15,383.11 441.50,379.45 C467.91,374.46 500.91,363.76 514.75,355.70 C522.78,351.02 515.97,352.40 490.61,360.61 C490.38,360.68 490.16,360.75 489.94,360.82 C494.09,359.42 497.13,358.30 497.50,358.01 C497.87,357.71 500.01,356.71 502.85,355.48 C503.23,355.32 503.62,355.17 504.00,355.02 C504.95,354.65 506.55,353.96 508.58,353.06 C512.42,351.44 516.95,349.34 521.31,347.23 C522.71,346.57 524.11,345.90 525.50,345.24 C545.45,335.74 547.19,335.51 563.00,340.30 C569.33,342.22 585.75,346.78 599.50,350.45 C656.75,365.72 680.08,373.32 699.84,383.11 C716.77,391.51 725.82,399.89 727.31,408.93 C726.82,406.42 725.64,404.08 723.75,401.94 C718.29,395.71 710.27,392.22 688.49,386.56 C664.39,380.31 655.07,377.77 632.62,371.38 C609.48,364.78 587.67,359.37 579.00,358.08 L 571.50 356.96 L 552.00 365.32 C541.28,369.91 528.52,375.21 523.67,377.09 L 514.83 380.50 L 540.17 381.00 C561.27,381.42 569.29,382.06 568.65,383.67 C568.17,382.70 563.50,382.03 554.30,382.02 C516.56,381.97 471.39,395.36 438.92,416.06 C448.37,409.48 459.36,402.87 471.66,396.40 C479.61,392.21 485.98,388.65 485.80,388.47 C485.63,388.30 482.34,388.78 478.49,389.54 C462.15,392.80 381.24,393.72 361.00,390.88 C356.88,390.30 343.56,386.49 331.41,382.41 C319.26,378.34 308.30,375.00 307.06,375.00 C303.38,375.00 299.51,378.50 289.98,390.41 C285.03,396.62 279.18,403.13 276.99,404.89 C271.44,409.35 263.22,412.98 258.64,412.99 C253.57,413.00 245.73,408.76 235.09,400.24 C230.46,396.53 225.06,392.36 223.09,390.96 C222.88,390.81 222.65,390.63 222.40,390.41 C222.90,390.77 223.42,391.08 223.95,391.36 C225.16,392.07 226.42,392.58 227.78,392.96 C228.06,393.03 228.33,393.10 228.60,393.17 C234.59,394.91 238.77,394.00 244.90,389.91 ZM 291.68 343.62 C292.38,345.42 292.65,345.38 296.66,342.90 C298.53,341.74 301.01,338.93 302.17,336.65 C306.06,329.02 333.82,281.90 341.45,270.00 C347.74,260.17 358.03,243.07 358.66,241.40 C359.97,237.90 350.69,247.16 345.07,254.96 C344.46,255.82 343.82,256.72 343.14,257.67 C367.66,221.71 375.73,212.11 392.92,195.00 C408.77,179.23 423.32,167.40 435.97,160.02 C444.15,155.24 448.58,153.55 455.50,152.59 C462.82,151.56 464.00,151.07 464.00,149.02 C464.00,148.28 463.76,147.55 463.30,146.83 C464.08,147.71 464.66,148.62 465.02,149.56 C466.15,152.53 470.96,156.10 479.51,160.33 C486.92,163.99 490.63,167.18 489.53,168.94 C488.45,170.69 483.81,172.71 479.05,173.50 C476.60,173.91 472.64,175.08 470.24,176.11 C452.75,183.61 422.67,207.70 405.72,227.78 C383.23,254.44 327.60,332.59 320.64,347.29 C317.52,353.88 317.98,355.81 323.22,358.29 C323.95,358.64 325.00,359.02 326.28,359.40 C323.58,358.70 320.74,357.92 317.71,357.03 C300.81,352.08 297.28,350.64 293.70,347.21 C291.23,344.85 290.98,344.06 291.57,340.52 C292.50,334.94 294.34,330.86 306.84,311.81 C300.88,321.06 296.32,328.40 294.88,331.23 C292.33,336.19 290.93,341.65 291.68,343.62 ZM 528.32 539.53 C521.27,539.84 512.80,540.21 509.50,540.35 C506.20,540.49 499.23,540.24 494.00,539.79 C464.08,537.23 442.25,529.07 421.50,512.69 C418.20,510.08 413.21,506.20 410.41,504.06 C401.61,497.34 397.30,491.14 396.15,483.04 C398.31,495.80 408.52,505.31 426.94,512.04 C450.77,520.73 480.96,522.68 518.50,517.95 C527.30,516.84 544.40,514.15 556.50,511.97 C568.60,509.79 580.03,507.75 581.91,507.43 C582.73,507.29 583.64,507.11 584.63,506.90 C580.15,508.16 575.32,509.51 570.07,510.97 C559.93,513.80 550.93,516.56 550.07,517.12 C547.31,518.89 565.40,517.22 583.00,514.08 C601.06,510.85 625.42,505.47 639.50,501.61 C661.21,495.65 658.91,496.41 686.00,486.26 C698.46,481.60 717.49,472.06 727.50,465.47 C737.69,458.75 747.29,448.80 750.66,441.44 C752.84,436.66 753.17,434.81 752.72,429.81 C752.39,426.22 751.49,423.10 750.45,421.95 C748.81,420.13 748.60,420.12 745.75,421.77 C744.11,422.72 740.14,426.70 736.93,430.62 C728.82,440.50 721.31,447.14 708.07,455.50 C717.08,449.59 724.37,443.79 730.00,438.05 C737.50,430.41 738.85,428.46 741.50,421.45 C744.11,414.53 744.50,412.21 744.48,403.50 C744.47,398.00 743.90,391.91 743.22,389.96 C741.71,385.65 734.00,378.06 724.42,370.71 C725.29,371.35 726.17,372.01 727.07,372.70 C762.08,399.23 771.35,409.34 772.71,422.49 C773.92,434.23 767.14,444.66 746.90,462.17 C704.43,498.93 598.48,536.42 528.32,539.53 ZM 602.01 290.10 C605.41,286.86 609.06,282.93 612.43,278.93 C617.67,273.01 620.48,269.12 622.64,265.18 C629.57,252.54 637.67,246.28 650.87,243.39 C655.78,242.32 669.18,241.03 685.02,239.98 C684.51,240.02 684.01,240.06 683.51,240.10 C670.87,241.06 665.10,242.74 666.53,245.04 C667.37,246.41 674.79,246.20 687.50,244.45 C693.55,243.61 705.16,242.10 713.31,241.08 C721.45,240.06 728.42,238.89 728.81,238.49 C728.94,238.35 728.26,238.26 726.93,238.21 C745.88,238.19 753.05,240.60 758.90,247.69 C763.68,253.50 764.38,258.50 760.44,265.10 C762.22,261.45 760.50,259.62 755.57,258.01 C747.39,255.34 706.32,258.16 676.00,263.48 C662.16,265.90 660.86,266.48 657.20,271.75 C655.38,274.36 649.87,282.35 644.95,289.50 C640.04,296.65 632.19,306.89 627.51,312.25 C622.83,317.61 619.00,322.89 619.00,323.98 C619.00,326.63 625.57,329.86 639.00,333.83 C648.12,336.53 657.39,339.46 665.98,342.35 C657.73,339.61 648.62,336.75 639.00,333.89 C604.75,323.73 581.50,314.99 581.50,312.27 C581.50,311.60 586.93,305.52 593.57,298.77 L 593.63 298.71 C593.69,298.72 593.71,298.70 593.70,298.64 C596.80,295.49 599.55,292.66 602.01,290.10 ZM 464.68 495.20 C446.05,492.22 436.19,486.66 429.60,477.14 C425.77,471.62 424.84,467.55 426.16,462.09 C426.60,460.25 427.20,458.39 427.95,456.54 C425.62,463.51 426.40,470.17 429.85,465.06 C434.40,458.32 454.67,441.06 468.23,432.36 C483.90,422.30 504.67,413.44 526.47,407.50 C543.21,402.95 548.52,402.11 565.56,401.34 C593.26,400.09 593.23,404.42 565.52,407.04 C526.73,410.72 470.04,442.21 455.05,468.41 C449.18,478.68 450.00,488.60 457.09,492.91 C458.52,493.78 461.04,494.54 464.68,495.20 ZM 599.85 120.36 C625.36,136.00 648.39,157.96 658.15,177.29 C662.71,186.34 667.01,198.60 669.05,208.40 C670.07,213.30 671.36,217.76 671.92,218.32 C673.79,220.19 684.36,220.95 722.50,221.98 C757.08,222.91 760.73,223.17 763.03,224.87 C764.29,225.80 766.91,227.37 769.12,228.54 C763.19,225.96 753.32,224.80 737.11,223.84 C714.25,222.48 667.67,224.02 651.72,226.66 C646.34,227.55 641.71,228.04 641.43,227.76 C641.15,227.49 640.91,221.46 640.90,214.38 C640.89,210.25 640.83,206.35 640.71,202.66 C640.68,199.04 640.47,194.97 640.08,190.41 C638.98,177.60 636.73,167.37 632.80,158.27 C632.72,158.06 632.63,157.86 632.54,157.66 C630.29,152.57 627.51,147.83 624.11,143.17 C623.80,142.75 623.48,142.33 623.16,141.90 C616.96,133.71 609.29,126.57 599.85,120.36 ZM 229.05 376.05 C225.51,372.51 224.56,366.47 224.55,347.50 C224.54,332.79 224.85,328.82 226.22,325.75 C227.14,323.69 228.48,322.01 229.20,322.01 C233.63,322.05 251.16,334.73 255.56,341.09 L 258.27 345.00 L 257.64 346.71 C258.24,344.67 257.58,344.18 255.10,342.72 C250.45,339.97 248.00,340.43 248.00,344.05 C248.00,345.73 248.69,348.43 249.53,350.05 C251.66,354.17 254.71,353.95 256.55,349.53 C256.67,349.24 256.79,348.96 256.89,348.70 L 256.51 349.75 C248.82,370.42 235.85,382.85 229.05,376.05 ZM 773.18 231.04 C774.15,231.78 774.92,232.52 775.26,233.06 C775.94,234.17 779.75,237.58 783.72,240.62 C787.69,243.67 793.40,248.82 796.40,252.07 C802.26,258.39 803.88,263.18 802.68,270.59 C801.39,278.54 793.48,292.25 785.52,300.32 C780.03,305.89 776.28,307.99 771.28,308.28 C765.11,308.65 766.00,306.08 775.05,297.36 C787.76,285.12 791.47,276.68 787.52,269.04 C785.94,265.99 781.46,262.00 779.62,262.00 C779.01,262.00 772.88,267.81 766.00,274.91 C764.31,276.66 762.82,278.19 761.48,279.53 C765.50,274.64 769.53,268.08 773.39,260.06 C777.01,252.52 777.50,250.67 777.48,244.50 C777.46,238.23 776.52,233.99 773.18,231.04 ZM 226.27 297.84 C226.71,297.94 227.86,297.51 230.80,296.40 C231.17,296.26 231.58,296.11 232.01,295.94 C248.61,289.72 256.12,288.61 256.82,292.28 C257.01,293.26 256.00,297.79 254.58,302.34 C251.05,313.65 251.17,318.47 255.08,323.80 C256.90,326.28 258.30,327.55 260.65,328.55 C255.46,326.59 249.40,323.63 245.35,320.83 C237.61,315.48 229.97,307.78 227.32,302.65 C226.66,301.38 226.30,299.88 226.27,297.84 ZM 254.49 395.63 C256.36,398.48 258.39,398.22 264.03,394.41 C273.78,387.83 286.76,362.00 280.33,362.00 C279.26,362.00 277.05,363.01 275.40,364.25 C269.75,368.51 258.50,382.12 255.08,388.83 C253.01,392.89 252.98,393.32 254.49,395.63 ZM 394.72 410.78 C391.48,413.93 385.71,415.99 384.74,414.35 C382.98,411.39 390.24,405.00 395.37,405.00 C398.91,405.00 398.70,406.93 394.72,410.78 ZM 429.04 96.96 C434.95,96.68 441.19,96.47 448.00,96.33 C461.65,96.04 474.74,96.22 486.96,96.83 C480.84,96.64 472.48,96.60 459.50,96.58 C447.38,96.57 437.70,96.66 429.04,96.96 ZM 355.04 90.95 C384.79,87.55 412.55,86.01 439.26,86.32 C412.32,86.17 383.43,87.77 355.04,90.95 ZM 446.69 353.68 C425.56,359.68 405.04,363.28 385.60,364.41 C405.32,363.07 426.65,359.31 447.63,353.40 C447.32,353.49 447.00,353.59 446.69,353.68 ZM 655.71 482.88 C642.47,488.70 632.83,492.48 616.89,497.46 C630.84,492.80 645.55,487.35 655.71,482.88 ZM 308.34 116.42 C328.30,111.27 347.94,107.17 369.34,103.66 C350.00,106.85 327.20,111.73 308.34,116.42 ZM 327.50 94.54 C328.86,94.34 330.22,94.14 331.58,93.95 C311.40,96.87 291.85,100.59 273.85,105.04 C261.46,108.10 249.74,111.54 238.76,115.31 C264.60,106.42 294.55,99.34 327.50,94.54 ZM 406.80 375.92 C417.35,375.48 427.98,374.51 438.42,373.03 C435.89,373.41 433.27,373.78 430.55,374.14 C422.74,375.18 416.89,375.69 406.80,375.92 ZM 656.92 468.29 C641.17,474.53 630.59,478.19 616.42,482.09 C630.43,478.11 643.28,473.70 656.92,468.29 ZM 451.15 140.06 C442.42,137.49 430.78,136.35 421.28,137.95 C431.24,136.27 442.50,137.32 451.15,140.06 ZM 589.43 488.93 C576.93,491.88 566.52,493.97 556.80,495.40 C562.66,494.50 568.77,493.36 575.50,491.96 C580.35,490.95 584.98,489.94 589.43,488.93 ZM 558.03 101.88 C564.03,103.61 569.40,105.37 573.44,106.98 C575.62,107.84 577.81,108.77 580.00,109.77 C573.33,106.88 566.02,104.26 558.03,101.88 ZM 447.64 430.58 C462.98,416.91 485.18,404.60 511.00,396.15 C485.55,404.48 463.16,416.83 447.64,430.58 ZM 726.98 416.00 C726.11,419.46 724.23,423.04 721.35,426.76 C716.06,433.60 708.97,440.08 700.00,446.25 C703.64,443.71 707.02,441.08 710.20,438.32 C719.61,430.15 725.23,422.64 726.98,416.00 ZM 403.28 451.50 C405.84,446.50 409.80,441.25 415.03,435.85 C409.87,441.32 405.67,446.84 403.28,451.50 ZM 262.90 329.36 C263.14,329.44 263.38,329.51 263.64,329.58 C266.56,330.43 269.53,330.91 270.37,330.68 C270.35,330.69 270.33,330.70 270.32,330.71 C269.21,331.13 266.39,330.54 262.90,329.36 ZM 150.40 170.58 C162.30,153.92 183.21,138.84 211.06,126.24 C183.12,138.90 162.21,154.04 150.40,170.58 ZM 396.81 468.51 C397.90,463.31 399.96,457.98 403.28,451.50 C400.16,457.59 398.00,463.26 396.81,468.51 ZM 494.71 334.96 C503.97,330.33 512.44,325.67 515.49,323.30 C512.28,325.79 503.95,330.37 494.71,334.96 ZM 520.99 93.44 C521.33,93.50 521.66,93.55 522.00,93.61 C526.43,94.35 531.23,95.29 536.10,96.35 C531.27,95.32 526.24,94.35 520.99,93.44 ZM 677.71 472.61 C671.17,475.90 664.26,479.11 655.71,482.88 C663.59,479.41 670.92,475.99 677.71,472.61 ZM 610.63 158.57 C611.51,160.63 612.33,162.92 613.26,165.78 C612.49,163.40 611.49,160.69 610.63,158.57 ZM 751.40 288.18 C750.66,288.58 749.97,288.86 749.28,289.06 C747.60,289.55 746.47,289.80 745.61,289.80 C746.44,289.80 747.52,289.56 749.09,289.09 C749.85,288.86 750.62,288.56 751.40,288.18 ZM 706.23 358.54 C705.06,357.88 703.90,357.25 702.76,356.65 C703.90,357.24 705.05,357.87 706.23,358.54 Z" fill="rgb(179,154,202)" data-index="2"></path>

</g>
</svg>