<svg xmlns="http://www.w3.org/2000/svg" viewBox="0 0 500 500" preserveAspectRatio="xMidYMid meet">
<g>
<path d="M 201.11 269.57 C197.92,274.41 196.30,276.00 194.56,276.00 C192.01,276.00 191.05,275.08 188.60,270.26 C187.27,267.64 187.00,264.41 187.19,253.53 L 187.43 240.05 L 190.38 239.02 C192.00,238.45 193.45,238.12 193.61,238.27 C193.76,238.43 193.45,240.48 192.92,242.84 C192.10,246.53 192.25,247.54 194.02,250.03 C197.94,255.54 204.00,258.46 204.00,254.84 C204.00,254.26 207.38,246.63 211.50,237.87 C215.62,229.11 219.00,220.78 219.00,219.36 C219.00,215.21 228.48,203.65 235.97,198.65 C238.89,196.70 243.54,196.54 246.92,198.26 C250.40,200.04 250.72,202.00 247.52,202.00 C244.04,202.00 235.71,209.88 229.20,219.33 C226.49,223.27 220.33,234.11 215.51,243.42 C214.92,244.57 214.36,245.64 213.84,246.64 C209.17,255.61 207.33,259.15 208.38,261.21 C209.19,262.79 211.70,263.50 215.94,265.10 C227.01,269.29 244.47,266.10 257.38,257.53 C260.31,255.59 263.15,254.00 263.70,254.00 C264.74,254.00 268.00,257.23 268.00,258.26 C268.00,258.59 265.41,260.42 262.25,262.32 C246.50,271.82 225.13,273.17 210.18,265.59 L 205.33 263.14 ZM 185.22 230.49 L 190.50 232.88 L 187.00 232.90 C182.70,232.91 176.91,229.97 173.98,226.27 C172.06,223.85 171.84,222.60 172.24,216.35 C172.63,210.03 173.12,208.60 176.38,204.16 C180.80,198.14 189.63,192.31 200.01,188.57 C216.94,182.46 239.67,180.03 256.66,182.53 C281.21,186.13 292.00,196.35 292.00,216.00 C292.00,224.33 291.46,225.38 286.67,226.24 C284.13,226.70 283.91,226.53 284.54,224.63 C284.93,223.46 285.46,218.86 285.72,214.41 C286.14,207.20 285.92,205.78 283.68,201.41 C280.68,195.53 274.81,189.64 270.00,187.66 C263.26,184.88 249.14,183.64 238.53,184.90 C223.59,186.66 208.06,191.22 196.72,197.18 C189.42,201.02 177.51,212.27 178.37,214.51 C178.68,215.33 178.60,216.00 178.19,216.00 C177.77,216.00 177.35,218.07 177.24,220.59 C177.00,226.01 177.94,227.18 185.22,230.49 ZM 217.08 342.08 C214.00,345.15 212.88,345.43 209.32,343.99 C205.00,342.26 203.54,335.63 206.82,332.67 C209.93,329.85 214.19,329.58 217.27,331.99 C220.87,334.83 220.80,338.35 217.08,342.08 ZM 295.65 342.87 C294.91,343.49 292.92,344.27 291.22,344.61 C288.75,345.10 287.62,344.71 285.57,342.66 C284.15,341.25 283.00,339.14 283.00,337.98 C283.00,335.59 284.76,331.86 286.40,330.77 C288.50,329.36 293.01,330.01 295.00,332.00 C297.34,334.34 297.75,341.14 295.65,342.87 ZM 287.07 237.87 C286.00,239.95 283.19,243.72 280.82,246.24 C276.68,250.64 276.43,250.75 274.83,249.00 C273.92,247.99 273.43,246.90 273.75,246.58 C274.07,246.26 273.81,246.00 273.17,246.00 C271.40,246.00 278.86,236.70 282.00,235.00 C283.52,234.18 285.72,232.92 286.88,232.21 C288.69,231.12 289.00,231.16 289.00,232.50 C289.00,233.37 288.13,235.79 287.07,237.87 ZM 216.38 320.70 C213.66,324.37 210.07,324.77 207.22,321.73 C204.59,318.93 204.45,317.24 206.60,314.17 C208.91,310.86 214.85,311.46 216.95,315.20 C218.34,317.70 218.30,318.13 216.38,320.70 ZM 274.37 342.93 C272.92,344.07 271.40,345.00 271.00,345.00 C269.01,345.00 265.00,340.61 265.00,338.43 C265.00,335.49 268.26,332.00 271.00,332.00 C273.74,332.00 277.00,335.49 277.00,338.43 C277.00,339.86 275.92,341.71 274.37,342.93 ZM 192.66 269.25 C193.49,272.32 196.04,271.14 198.03,266.75 C199.09,264.41 199.97,261.82 199.98,261.00 C200.00,259.28 194.76,254.00 193.04,254.00 C191.90,254.00 191.62,265.42 192.66,269.25 ZM 257.78 338.44 C255.01,340.38 254.52,340.38 252.57,338.43 C249.40,335.25 251.22,330.00 255.50,330.00 C260.13,330.00 261.67,335.71 257.78,338.44 ZM 218.30 304.90 C216.90,307.13 213.56,307.42 211.62,305.48 C208.32,302.17 210.30,298.00 215.18,298.00 C217.36,298.00 218.11,298.58 218.63,300.65 C218.99,302.11 218.84,304.03 218.30,304.90 ZM 248.00 329.09 C248.00,331.88 244.52,333.38 242.57,331.43 C240.42,329.28 240.60,327.28 243.06,325.97 C245.53,324.64 248.00,326.21 248.00,329.09 ZM 223.46 293.14 C222.26,296.92 216.42,294.28 217.18,290.30 C217.64,287.86 222.52,287.30 223.39,289.59 C223.75,290.52 223.78,292.12 223.46,293.14 ZM 276.03 243.12 C275.98,244.18 280.99,243.82 281.67,242.72 C282.02,242.16 281.49,241.10 280.50,240.37 C278.96,239.25 278.49,239.31 277.37,240.77 C276.65,241.72 276.05,242.78 276.03,243.12 ZM 228.00 285.00 C228.00,286.93 226.04,287.71 224.67,286.33 C223.29,284.96 224.07,283.00 226.00,283.00 C227.33,283.00 228.00,283.67 228.00,285.00 ZM 239.82 322.67 C239.43,324.68 237.44,325.52 236.53,324.05 C235.65,322.63 236.77,321.00 238.63,321.00 C239.51,321.00 240.01,321.70 239.82,322.67 Z" fill="rgb(52,20,131)" data-index="0"></path>
<path d="M 267.78 313.04 C257.20,315.13 251.80,315.34 245.72,313.91 C233.76,311.09 230.16,303.63 235.37,292.44 C240.03,282.45 255.20,273.16 268.40,272.21 C276.44,271.63 277.03,273.45 269.04,274.22 C253.39,275.73 235.89,293.07 241.45,301.57 C244.44,306.12 247.52,307.28 257.81,307.73 C265.81,308.08 269.16,307.73 277.05,305.69 C289.75,302.40 301.05,296.92 307.02,291.16 C318.81,279.78 313.30,272.92 284.93,263.62 C279.19,261.73 273.33,259.66 271.91,259.01 C269.82,258.05 268.87,258.18 264.87,260.67 C266.73,259.46 268.00,258.49 268.00,258.26 C268.00,257.23 264.74,254.00 263.70,254.00 C263.31,254.00 261.73,254.82 259.79,256.00 C260.14,255.73 260.48,255.46 260.81,255.19 C263.84,252.68 264.03,252.21 263.03,249.58 C260.66,243.35 264.81,237.68 276.42,231.30 C281.24,228.65 283.65,226.75 284.83,223.30 C284.73,223.90 284.63,224.36 284.54,224.63 C283.91,226.53 284.13,226.70 286.67,226.24 C291.38,225.39 291.98,224.37 292.00,216.39 C292.00,216.48 292.00,216.58 292.00,216.67 L 292.00 225.09 L 295.75 224.30 C297.81,223.86 304.29,223.50 310.15,223.50 C322.31,223.50 325.02,224.76 324.97,230.40 C324.94,234.01 321.18,241.85 318.76,243.38 C316.15,245.02 315.44,243.24 317.70,240.75 C320.88,237.26 321.85,234.73 320.94,232.32 C319.51,228.53 316.43,227.68 306.56,228.32 C293.43,229.18 290.68,230.09 288.32,235.04 C288.74,233.93 289.00,232.98 289.00,232.50 C289.00,231.16 288.69,231.12 286.88,232.21 C285.72,232.92 283.52,234.18 282.00,235.00 C278.86,236.70 271.40,246.00 273.17,246.00 C273.81,246.00 274.07,246.26 273.75,246.58 C273.43,246.90 273.92,247.99 274.83,249.00 C276.43,250.75 276.68,250.64 280.82,246.24 C282.17,244.81 283.66,242.97 284.89,241.27 C284.03,242.61 283.12,243.90 282.30,244.92 C280.29,247.44 278.26,250.01 277.79,250.64 C277.19,251.44 281.39,253.53 291.63,257.54 C304.54,262.58 306.99,263.92 311.67,268.45 C316.84,273.46 317.00,273.78 317.00,279.11 C317.00,286.01 313.69,290.91 304.70,297.31 C293.08,305.59 282.29,310.18 267.78,313.04 ZM 255.55 358.35 C252.91,361.20 250.66,361.61 247.50,359.79 C242.50,356.92 241.66,352.25 245.45,348.45 C252.76,341.15 262.57,350.77 255.55,358.35 ZM 240.17 344.35 C234.43,349.54 226.53,341.47 232.00,336.00 C234.22,333.78 238.95,333.35 240.80,335.20 C242.62,337.02 242.25,342.47 240.17,344.35 ZM 231.57 328.58 C231.11,330.41 230.29,331.00 228.18,331.00 C224.84,331.00 223.00,329.37 223.00,326.42 C223.00,323.49 225.28,321.79 228.68,322.18 C231.71,322.53 232.60,324.49 231.57,328.58 ZM 227.07 316.42 C224.05,320.05 218.58,316.33 221.35,312.53 C222.85,310.48 225.84,310.80 227.33,313.17 C228.10,314.37 228.02,315.27 227.07,316.42 ZM 269.60 246.16 C270.04,246.88 270.95,246.44 272.17,244.89 C278.74,236.57 279.10,235.37 273.90,239.07 C270.50,241.49 268.62,244.58 269.60,246.16 ZM 276.03 243.12 C276.05,242.78 276.65,241.72 277.37,240.77 C278.49,239.31 278.96,239.25 280.50,240.37 C281.49,241.10 282.02,242.16 281.67,242.72 C280.99,243.82 275.98,244.18 276.03,243.12 ZM 225.82 305.67 C225.24,308.68 222.00,308.40 222.00,305.33 C222.00,304.60 222.93,304.00 224.07,304.00 C225.47,304.00 226.04,304.54 225.82,305.67 ZM 243.69 181.57 C256.44,181.58 267.46,183.77 275.52,187.82 C270.48,185.38 264.22,183.64 256.66,182.53 C252.61,181.93 248.24,181.62 243.69,181.57 ZM 273.53 189.66 C269.86,187.21 265.61,186.09 257.37,184.98 C256.44,184.86 255.48,184.75 254.50,184.67 C260.67,185.13 266.39,186.17 270.00,187.66 C271.14,188.12 272.33,188.81 273.53,189.66 ZM 239.84 265.25 C231.14,267.48 222.44,267.56 215.94,265.10 C213.77,264.28 212.06,263.70 210.79,263.11 C212.02,263.67 213.66,264.23 215.73,265.00 C222.31,267.46 231.17,267.37 239.84,265.25 ZM 285.88 210.86 C285.71,207.52 285.09,204.60 283.93,201.89 C285.54,205.10 285.98,206.75 285.88,210.86 ZM 289.12 201.04 C290.90,204.54 291.72,208.29 291.94,213.45 C291.70,208.75 290.77,204.63 289.12,201.04 ZM 216.98 184.00 C210.99,185.15 205.22,186.68 200.01,188.57 C205.76,186.49 210.88,185.08 216.98,184.00 ZM 248.74 184.42 C244.51,184.39 240.02,184.70 235.42,185.30 C236.46,185.15 237.49,185.02 238.53,184.90 C241.71,184.52 245.22,184.37 248.74,184.42 ZM 187.17 261.78 C187.26,265.59 187.56,267.67 188.17,269.28 C187.49,267.57 187.23,265.69 187.17,261.78 ZM 188.69 232.89 C188.33,232.92 187.83,232.93 187.21,232.94 C186.37,232.96 185.44,232.84 184.47,232.61 C185.35,232.80 186.20,232.90 187.00,232.90 ZM 208.39 258.16 C209.06,255.83 210.88,252.32 213.84,246.64 C214.36,245.64 214.92,244.57 215.51,243.42 C211.56,251.05 209.18,255.42 208.39,258.16 ZM 187.43 240.05 L 187.43 240.05 L 187.40 241.66 Z" fill="rgb(105,28,136)" data-index="1"></path>
<path d="M 185.22 230.49 C177.94,227.18 177.00,226.01 177.24,220.59 C177.35,218.07 177.77,216.00 178.19,216.00 C178.60,216.00 178.68,215.33 178.37,214.51 C177.51,212.27 189.42,201.02 196.72,197.18 C202.04,194.39 208.27,191.90 214.93,189.87 C212.81,190.54 210.69,191.27 208.59,192.05 C205.51,193.20 203.00,194.34 203.00,194.57 C203.00,194.60 203.00,194.63 203.00,194.65 C202.99,194.73 202.99,194.80 203.02,194.84 C203.17,195.07 204.16,194.77 210.27,192.86 C210.66,192.74 211.07,192.62 211.50,192.48 C224.31,188.50 244.18,186.42 256.94,187.72 C262.75,188.31 268.40,189.07 269.50,189.41 C270.60,189.75 269.52,189.07 267.10,187.91 C263.09,185.98 257.87,184.86 251.89,184.51 C252.76,184.55 253.64,184.60 254.50,184.67 L 254.50 184.67 C255.48,184.75 256.44,184.86 257.37,184.98 C265.61,186.09 269.86,187.21 273.53,189.66 C275.93,191.36 278.36,193.73 280.41,196.35 C280.17,196.12 279.96,196.00 279.81,196.00 C279.18,196.00 277.95,195.38 277.08,194.62 C276.21,193.86 272.55,192.51 268.94,191.62 C249.89,186.92 218.48,193.12 200.00,205.22 C184.60,215.31 178.44,227.27 186.75,230.93 C187.81,231.40 188.61,231.86 189.15,232.27 ZM 201.11 269.57 L 205.33 263.14 L 210.18 265.59 C215.57,268.32 221.79,269.89 228.29,270.34 C224.11,270.35 221.00,270.46 221.00,270.62 C221.00,270.80 222.46,271.37 224.25,271.88 C232.34,274.22 245.02,272.47 255.50,267.57 C263.19,263.97 265.35,261.64 258.00,264.87 C251.66,267.66 246.53,269.20 240.56,269.89 C248.18,268.81 255.70,266.27 262.25,262.32 C263.19,261.75 264.09,261.19 264.87,260.67 C268.87,258.18 269.82,258.05 271.91,259.01 C273.33,259.66 279.19,261.73 284.93,263.62 C302.12,269.25 310.92,273.99 312.56,279.39 C311.54,277.30 308.89,275.19 306.15,274.52 C304.69,274.17 297.29,271.62 289.69,268.86 C280.32,265.46 275.51,264.16 274.69,264.82 C274.04,265.35 270.80,267.18 267.50,268.87 L 261.50 271.96 L 268.31 271.98 C269.55,271.98 270.60,272.02 271.47,272.10 C270.61,272.09 269.59,272.12 268.40,272.21 C259.52,272.84 249.74,277.26 242.88,283.13 C245.19,281.03 247.88,278.95 250.94,276.92 L 255.38 273.97 L 251.94 274.74 C250.05,275.16 243.10,275.50 236.50,275.50 C225.50,275.50 224.01,275.27 218.63,272.75 C215.40,271.24 212.25,270.02 211.63,270.03 C211.01,270.05 209.15,272.41 207.50,275.27 C205.60,278.56 203.50,280.81 201.77,281.42 C199.32,282.28 198.60,281.93 194.67,277.94 C193.84,277.09 193.10,276.32 192.43,275.59 C193.04,275.90 193.71,276.00 194.56,276.00 C196.30,276.00 197.92,274.41 201.11,269.57 ZM 215.44 260.81 C214.07,264.08 214.09,264.14 217.27,265.52 C216.75,265.36 216.23,265.19 215.73,265.00 C213.66,264.23 212.02,263.67 210.79,263.11 C209.58,262.55 208.78,261.98 208.38,261.21 C208.36,261.15 208.33,261.10 208.30,261.04 C209.18,260.72 210.24,259.82 210.57,258.77 C210.96,257.54 213.97,250.90 217.25,244.02 C220.54,237.13 223.66,230.60 224.18,229.50 C224.88,228.04 224.60,228.16 223.17,229.94 C222.13,231.23 217.15,240.34 212.98,248.29 C213.74,246.83 214.58,245.22 215.51,243.42 C220.33,234.11 226.49,223.27 229.20,219.33 C235.71,209.88 244.04,202.00 247.52,202.00 C248.86,202.00 249.59,201.66 249.72,201.13 C250.42,202.20 251.84,203.52 253.16,204.28 C256.86,206.40 256.75,207.60 252.78,208.39 C248.86,209.18 239.99,217.99 234.50,226.55 C229.82,233.86 217.34,256.29 215.44,260.81 ZM 267.78 313.04 C273.02,312.01 277.77,310.75 282.25,309.18 C280.94,309.68 279.61,310.15 278.28,310.60 C274.00,312.03 270.31,313.38 270.08,313.60 C268.21,315.40 285.55,311.39 294.41,307.97 C312.30,301.08 321.34,292.26 318.39,284.58 C317.94,283.39 317.04,284.12 314.79,287.51 C316.33,284.90 317.00,282.21 317.00,279.11 C317.00,273.78 316.84,273.46 311.67,268.45 C311.64,268.42 311.62,268.40 311.59,268.37 C312.39,269.10 313.24,269.89 314.17,270.79 C326.05,282.13 326.65,286.95 317.41,296.93 C308.45,306.60 289.02,316.37 272.42,319.55 C257.52,322.40 247.86,320.50 240.27,313.24 C239.02,312.04 237.97,310.99 237.10,310.04 C239.18,311.75 242.06,313.05 245.72,313.91 C251.80,315.34 257.20,315.13 267.78,313.04 ZM 287.07 237.87 C287.54,236.93 287.98,235.93 288.32,235.04 C290.26,230.97 292.46,229.63 300.46,228.81 C298.92,229.17 298.00,229.66 298.00,230.20 C298.00,230.76 299.35,230.86 301.25,230.44 C303.04,230.05 306.75,229.39 309.50,228.99 L 314.50 228.25 L 310.21 228.15 C317.23,227.96 319.70,229.04 320.94,232.32 C321.39,233.52 321.38,234.76 320.85,236.13 C321.20,234.64 319.88,234.03 316.75,233.81 C312.95,233.53 297.46,236.06 296.67,237.09 C296.49,237.32 295.09,239.98 293.54,243.00 C291.99,246.02 289.63,249.93 288.29,251.68 C288.12,251.91 287.95,252.13 287.79,252.33 C287.04,253.28 286.55,253.91 286.61,254.48 C286.71,255.41 288.26,256.17 292.55,257.90 C292.25,257.78 291.95,257.66 291.63,257.54 C281.39,253.53 277.19,251.44 277.79,250.64 C278.26,250.01 280.29,247.44 282.30,244.92 C283.12,243.90 284.03,242.61 284.89,241.27 C285.82,239.98 286.61,238.77 287.07,237.87 ZM 248.58 306.71 C245.11,305.85 243.26,304.33 241.45,301.57 C240.35,299.89 240.15,297.86 240.66,295.68 C240.36,298.11 240.94,299.52 241.76,297.00 C242.02,296.17 244.88,292.95 248.11,289.83 C255.29,282.89 266.66,277.96 275.22,278.07 C279.09,278.12 279.97,278.37 278.50,279.00 C277.40,279.47 275.26,279.89 273.75,279.93 C269.11,280.05 258.51,285.76 253.15,291.04 C246.21,297.87 244.44,304.51 248.58,306.71 ZM 289.12 201.04 C287.61,197.76 285.49,194.93 282.73,192.51 C289.36,197.79 294.93,205.04 296.94,211.55 C298.07,215.21 299.00,219.25 299.00,220.52 C299.00,222.76 299.28,222.83 309.88,223.16 L 320.76 223.50 L 322.10 224.82 C319.91,223.81 316.19,223.50 310.15,223.50 C304.29,223.50 297.81,223.86 295.75,224.30 L 292.00 225.09 L 292.00 216.67 C292.00,216.58 292.00,216.48 292.00,216.39 L 292.00 216.39 C292.00,216.26 292.00,216.13 292.00,216.00 C292.00,215.13 291.98,214.28 291.94,213.45 C291.72,208.29 290.90,204.54 289.12,201.04 ZM 192.66 269.25 C191.62,265.42 191.90,254.00 193.04,254.00 C194.76,254.00 200.00,259.28 199.98,261.00 C199.98,261.09 199.96,261.21 199.94,261.35 C199.82,260.64 199.37,259.97 198.66,259.70 C197.69,259.33 197.44,259.86 197.77,261.58 C198.02,262.90 198.63,263.73 199.11,263.43 C199.24,263.35 199.35,263.26 199.44,263.17 C199.09,264.24 198.58,265.53 198.03,266.75 C196.04,271.14 193.49,272.32 192.66,269.25 ZM 320.99 240.85 C322.99,237.80 324.95,233.00 324.97,230.40 C324.98,229.10 324.85,228.03 324.48,227.15 L 325.85 228.50 C329.98,232.55 330.95,234.15 330.97,236.91 C331.00,240.73 326.95,248.42 324.38,249.41 C321.57,250.49 321.51,249.12 324.25,246.24 C327.57,242.75 328.50,239.07 326.70,236.60 C325.38,234.80 325.12,234.96 322.10,239.35 C321.74,239.87 321.37,240.38 320.99,240.85 ZM 188.69 232.89 L 189.77 232.89 C190.23,233.55 189.76,234.00 188.25,234.04 C187.29,234.06 188.59,235.07 191.14,236.29 C195.41,238.32 195.68,238.66 194.50,240.50 C193.80,241.57 192.95,243.41 192.57,244.64 C192.65,244.11 192.77,243.52 192.92,242.84 C193.45,240.48 193.76,238.43 193.61,238.27 C193.45,238.12 192.00,238.45 190.38,239.02 L 187.43 240.05 L 187.43 240.05 L 187.40 241.65 L 187.40 241.66 L 187.29 247.87 C187.19,245.74 186.96,244.31 186.61,243.75 C185.81,242.47 185.84,241.49 186.69,240.12 C187.71,238.49 187.42,238.00 184.43,236.39 C182.54,235.38 181.00,234.29 181.00,233.97 C181.00,233.66 178.95,231.30 176.44,228.71 C178.78,230.58 181.74,232.03 184.47,232.61 C185.44,232.84 186.37,232.96 187.21,232.94 C187.83,232.93 188.33,232.92 188.69,232.89 ZM 192.45 246.45 C192.78,246.46 193.46,246.12 194.69,245.48 C197.76,243.88 200.00,243.57 200.00,244.76 C200.00,245.17 199.56,247.06 199.01,248.95 C198.25,251.61 198.37,252.91 199.54,254.70 C199.82,255.12 200.09,255.49 200.35,255.79 C198.37,254.80 195.94,252.72 194.02,250.03 C193.01,248.61 192.53,247.68 192.45,246.45 ZM 199.00 275.55 C199.00,278.58 201.91,276.82 203.99,272.52 C207.34,265.60 206.18,263.47 202.24,269.30 C200.46,271.94 199.00,274.75 199.00,275.55 ZM 233.64 279.31 C233.97,279.64 233.54,280.60 232.68,281.46 C231.83,282.32 230.88,282.61 230.57,282.12 C229.92,281.06 232.78,278.44 233.64,279.31 ZM 248.90 283.76 C254.44,278.86 261.93,274.90 269.04,274.22 C271.26,274.01 272.81,273.72 273.73,273.41 C272.93,273.71 271.44,273.99 269.22,274.20 C262.88,274.81 254.82,278.90 248.90,283.76 ZM 288.73 301.90 C285.07,303.35 281.13,304.63 277.05,305.69 C270.51,307.38 267.09,307.91 261.55,307.84 C266.73,307.60 272.35,306.83 277.17,305.61 C281.25,304.57 285.13,303.32 288.73,301.90 ZM 173.64 225.82 L 171.75 223.87 L 172.22 216.53 C172.63,210.02 173.10,208.63 176.38,204.16 C173.12,208.60 172.63,210.03 172.24,216.35 C171.87,222.20 172.04,223.67 173.64,225.82 ZM 236.04 291.15 C235.80,291.58 235.58,292.01 235.37,292.44 C233.55,296.37 232.80,299.83 233.12,302.80 C233.04,302.17 233.01,301.52 233.01,300.82 C233.02,297.65 234.05,294.41 236.04,291.15 ZM 203.11 256.35 C203.32,256.08 203.51,255.72 203.67,255.25 C203.79,254.90 204.35,253.62 205.21,251.71 C204.44,253.49 204.00,254.63 204.00,254.84 C204.00,255.68 203.67,256.17 203.11,256.35 ZM 244.75 263.77 C248.26,262.45 251.92,260.75 255.07,258.98 C251.81,260.91 248.32,262.52 244.75,263.77 ZM 187.17 261.78 C187.20,263.73 187.28,265.17 187.43,266.34 C187.08,264.22 187.03,261.70 187.14,258.35 C187.13,259.63 187.14,260.77 187.17,261.78 ZM 305.14 263.41 C302.94,262.17 300.11,260.92 295.82,259.19 C296.49,259.46 297.21,259.74 297.97,260.04 C300.95,261.23 303.13,262.21 305.14,263.41 ZM 316.72 242.08 C316.20,243.04 316.24,243.74 316.74,243.95 C315.92,243.81 315.88,243.31 316.72,242.08 ZM 216.98 184.00 C216.43,184.10 215.90,184.20 215.37,184.30 C220.58,183.23 225.94,182.47 231.25,182.04 C226.47,182.45 221.66,183.11 216.98,184.00 ZM 241.06 197.09 C239.62,197.16 238.22,197.49 237.01,198.06 C237.65,197.72 238.24,197.48 238.76,197.35 C239.47,197.17 240.25,197.09 241.06,197.09 ZM 317.30 244.00 C317.53,243.97 317.80,243.88 318.11,243.74 C317.85,243.91 317.62,244.00 317.45,244.00 C317.40,244.00 317.35,244.00 317.30,244.00 ZM 319.22 238.93 C318.87,239.40 318.46,239.89 318.01,240.40 C318.17,240.22 318.33,240.02 318.50,239.82 C318.76,239.51 319.00,239.21 319.22,238.93 ZM 275.73 187.93 C275.66,187.89 275.59,187.86 275.52,187.82 C274.87,187.50 274.20,187.18 273.51,186.88 C273.77,186.99 274.02,187.10 274.27,187.22 C274.76,187.44 275.24,187.68 275.73,187.93 ZM 259.65 256.09 C260.06,255.78 260.45,255.48 260.81,255.19 C260.48,255.46 260.14,255.73 259.79,256.00 C259.74,256.03 259.70,256.06 259.65,256.09 Z" fill="rgb(179,152,204)" data-index="2"></path>

</g>
</svg>