<?xml version="1.0" encoding="UTF-8"?>
<svg xmlns="http://www.w3.org/2000/svg" xmlns:xlink="http://www.w3.org/1999/xlink" version="1.1" width="940" height="788" viewBox="0 0 940 788" xml:space="preserve" style="background: transparent;">
<desc>Created with Fabric.js 3.5.0</desc>
<defs>
</defs>
<rect x="0" y="0" width="100%" height="100%" fill="#ffffff"/>
<g transform="matrix(4.6533 0 0 3.8699 402.183 381.6938)" id="496381">
<path style="stroke: none; stroke-width: 1; stroke-dasharray: none; stroke-linecap: butt; stroke-dashoffset: 0; stroke-linejoin: miter; stroke-miterlimit: 4; is-custom-font: none; font-file-url: none; fill: rgb(52,20,131); fill-rule: nonzero; opacity: 1;" transform=" translate(-234.5432, -263.2789)" d="M 201.11 269.57 C 197.92 274.41 196.3 276 194.56 276 C 192.01 276 191.05 275.08 188.6 270.26 C 187.27 267.64 187 264.41 187.19 253.53 L 187.43 240.05 L 190.38 239.02 C 192 238.45 193.45 238.12 193.61 238.27 C 193.76 238.43 193.45 240.48 192.92 242.84 C 192.1 246.53 192.25 247.54 194.02 250.03 C 197.94 255.54 204 258.46 204 254.84 C 204 254.26 207.38 246.63 211.5 237.87 C 215.62 229.11 219 220.78 219 219.36 C 219 215.21 228.48 203.65 235.97 198.65 C 238.89 196.7 243.54 196.54 246.92 198.26 C 250.4 200.04 250.72 202 247.52 202 C 244.04 202 235.71 209.88 229.2 219.33 C 226.49 223.27 220.33 234.11 215.51 243.42 C 214.92 244.57 214.36 245.64 213.84 246.64 C 209.17 255.61 207.33 259.15 208.38 261.21 C 209.19 262.79 211.7 263.5 215.94 265.1 C 227.01 269.29 244.47 266.1 257.38 257.53 C 260.31 255.59 263.15 254 263.7 254 C 264.74 254 268 257.23 268 258.26 C 268 258.59 265.41 260.42 262.25 262.32 C 246.5 271.82 225.13 273.17 210.18 265.59 L 205.33 263.14 Z M 185.22 230.49 L 190.5 232.88 L 187 232.9 C 182.7 232.91 176.91 229.97 173.98 226.27 C 172.06 223.85 171.84 222.6 172.24 216.35 C 172.63 210.03 173.12 208.6 176.38 204.16 C 180.8 198.14 189.63 192.31 200.01 188.57 C 216.94 182.46 239.67 180.03 256.66 182.53 C 281.21 186.13 292 196.35 292 216 C 292 224.33 291.46 225.38 286.67 226.24 C 284.13 226.7 283.91 226.53 284.54 224.63 C 284.93 223.46 285.46 218.86 285.72 214.41 C 286.14 207.2 285.92 205.78 283.68 201.41 C 280.68 195.53 274.81 189.64 270 187.66 C 263.26 184.88 249.14 183.64 238.53 184.9 C 223.59 186.66 208.06 191.22 196.72 197.18 C 189.42 201.02 177.51 212.27 178.37 214.51 C 178.68 215.33 178.6 216 178.19 216 C 177.77 216 177.35 218.07 177.24 220.59 C 177 226.01 177.94 227.18 185.22 230.49 Z M 217.08 342.08 C 214 345.15 212.88 345.43 209.32 343.99 C 205 342.26 203.54 335.63 206.82 332.67 C 209.93 329.85 214.19 329.58 217.27 331.99 C 220.87 334.83 220.8 338.35 217.08 342.08 Z M 295.65 342.87 C 294.91 343.49 292.92 344.27 291.22 344.61 C 288.75 345.1 287.62 344.71 285.57 342.66 C 284.15 341.25 283 339.14 283 337.98 C 283 335.59 284.76 331.86 286.4 330.77 C 288.5 329.36 293.01 330.01 295 332 C 297.34 334.34 297.75 341.14 295.65 342.87 Z M 287.07 237.87 C 286 239.95 283.19 243.72 280.82 246.24 C 276.68 250.64 276.43 250.75 274.83 249 C 273.92 247.99 273.43 246.9 273.75 246.58 C 274.07 246.26 273.81 246 273.17 246 C 271.4 246 278.86 236.7 282 235 C 283.52 234.18 285.72 232.92 286.88 232.21 C 288.69 231.12 289 231.16 289 232.5 C 289 233.37 288.13 235.79 287.07 237.87 Z M 216.38 320.7 C 213.66 324.37 210.07 324.77 207.22 321.73 C 204.59 318.93 204.45 317.24 206.6 314.17 C 208.91 310.86 214.85 311.46 216.95 315.2 C 218.34 317.7 218.3 318.13 216.38 320.7 Z M 274.37 342.93 C 272.92 344.07 271.4 345 271 345 C 269.01 345 265 340.61 265 338.43 C 265 335.49 268.26 332 271 332 C 273.74 332 277 335.49 277 338.43 C 277 339.86 275.92 341.71 274.37 342.93 Z M 192.66 269.25 C 193.49 272.32 196.04 271.14 198.03 266.75 C 199.09 264.41 199.97 261.82 199.98 261 C 200 259.28 194.76 254 193.04 254 C 191.9 254 191.62 265.42 192.66 269.25 Z M 257.78 338.44 C 255.01 340.38 254.52 340.38 252.57 338.43 C 249.4 335.25 251.22 330 255.5 330 C 260.13 330 261.67 335.71 257.78 338.44 Z M 218.3 304.9 C 216.9 307.13 213.56 307.42 211.62 305.48 C 208.32 302.17 210.3 298 215.18 298 C 217.36 298 218.11 298.58 218.63 300.65 C 218.99 302.11 218.84 304.03 218.3 304.9 Z M 248 329.09 C 248 331.88 244.52 333.38 242.57 331.43 C 240.42 329.28 240.6 327.28 243.06 325.97 C 245.53 324.64 248 326.21 248 329.09 Z M 223.46 293.14 C 222.26 296.92 216.42 294.28 217.18 290.3 C 217.64 287.86 222.52 287.3 223.39 289.59 C 223.75 290.52 223.78 292.12 223.46 293.14 Z M 276.03 243.12 C 275.98 244.18 280.99 243.82 281.67 242.72 C 282.02 242.16 281.49 241.1 280.5 240.37 C 278.96 239.25 278.49 239.31 277.37 240.77 C 276.65 241.72 276.05 242.78 276.03 243.12 Z M 228 285 C 228 286.93 226.04 287.71 224.67 286.33 C 223.29 284.96 224.07 283 226 283 C 227.33 283 228 283.67 228 285 Z M 239.82 322.67 C 239.43 324.68 237.44 325.52 236.53 324.05 C 235.65 322.63 236.77 321 238.63 321 C 239.51 321 240.01 321.7 239.82 322.67 Z" stroke-linecap="round"/>
</g>
<g transform="matrix(4.6533 0 0 3.8699 496.0734 412.4641)" id="210606">
<path style="stroke: none; stroke-width: 1; stroke-dasharray: none; stroke-linecap: butt; stroke-dashoffset: 0; stroke-linejoin: miter; stroke-miterlimit: 4; is-custom-font: none; font-file-url: none; fill: rgb(105,28,136); fill-rule: nonzero; opacity: 1;" transform=" translate(-254.7203, -271.2301)" d="M 267.78 313.04 C 257.2 315.13 251.8 315.34 245.72 313.91 C 233.76 311.09 230.16 303.63 235.37 292.44 C 240.03 282.45 255.2 273.16 268.4 272.21 C 276.44 271.63 277.03 273.45 269.04 274.22 C 253.39 275.73 235.89 293.07 241.45 301.57 C 244.44 306.12 247.52 307.28 257.81 307.73 C 265.81 308.08 269.16 307.73 277.05 305.69 C 289.75 302.4 301.05 296.92 307.02 291.16 C 318.81 279.78 313.3 272.92 284.93 263.62 C 279.19 261.73 273.33 259.66 271.91 259.01 C 269.82 258.05 268.87 258.18 264.87 260.67 C 266.73 259.46 268 258.49 268 258.26 C 268 257.23 264.74 254 263.7 254 C 263.31 254 261.73 254.82 259.79 256 C 260.14 255.73 260.48 255.46 260.81 255.19 C 263.84 252.68 264.03 252.21 263.03 249.58 C 260.66 243.35 264.81 237.68 276.42 231.3 C 281.24 228.65 283.65 226.75 284.83 223.3 C 284.73 223.9 284.63 224.36 284.54 224.63 C 283.91 226.53 284.13 226.7 286.67 226.24 C 291.38 225.39 291.98 224.37 292 216.39 C 292 216.48 292 216.58 292 216.67 L 292 225.09 L 295.75 224.3 C 297.81 223.86 304.29 223.5 310.15 223.5 C 322.31 223.5 325.02 224.76 324.97 230.4 C 324.94 234.01 321.18 241.85 318.76 243.38 C 316.15 245.02 315.44 243.24 317.7 240.75 C 320.88 237.26 321.85 234.73 320.94 232.32 C 319.51 228.53 316.43 227.68 306.56 228.32 C 293.43 229.18 290.68 230.09 288.32 235.04 C 288.74 233.93 289 232.98 289 232.5 C 289 231.16 288.69 231.12 286.88 232.21 C 285.72 232.92 283.52 234.18 282 235 C 278.86 236.7 271.4 246 273.17 246 C 273.81 246 274.07 246.26 273.75 246.58 C 273.43 246.9 273.92 247.99 274.83 249 C 276.43 250.75 276.68 250.64 280.82 246.24 C 282.17 244.81 283.66 242.97 284.89 241.27 C 284.03 242.61 283.12 243.9 282.3 244.92 C 280.29 247.44 278.26 250.01 277.79 250.64 C 277.19 251.44 281.39 253.53 291.63 257.54 C 304.54 262.58 306.99 263.92 311.67 268.45 C 316.84 273.46 317 273.78 317 279.11 C 317 286.01 313.69 290.91 304.7 297.31 C 293.08 305.59 282.29 310.18 267.78 313.04 Z M 255.55 358.35 C 252.91 361.2 250.66 361.61 247.5 359.79 C 242.5 356.92 241.66 352.25 245.45 348.45 C 252.76 341.15 262.57 350.77 255.55 358.35 Z M 240.17 344.35 C 234.43 349.54 226.53 341.47 232 336 C 234.22 333.78 238.95 333.35 240.8 335.2 C 242.62 337.02 242.25 342.47 240.17 344.35 Z M 231.57 328.58 C 231.11 330.41 230.29 331 228.18 331 C 224.84 331 223 329.37 223 326.42 C 223 323.49 225.28 321.79 228.68 322.18 C 231.71 322.53 232.6 324.49 231.57 328.58 Z M 227.07 316.42 C 224.05 320.05 218.58 316.33 221.35 312.53 C 222.85 310.48 225.84 310.8 227.33 313.17 C 228.1 314.37 228.02 315.27 227.07 316.42 Z M 269.6 246.16 C 270.04 246.88 270.95 246.44 272.17 244.89 C 278.74 236.57 279.1 235.37 273.9 239.07 C 270.5 241.49 268.62 244.58 269.6 246.16 Z M 276.03 243.12 C 276.05 242.78 276.65 241.72 277.37 240.77 C 278.49 239.31 278.96 239.25 280.5 240.37 C 281.49 241.1 282.02 242.16 281.67 242.72 C 280.99 243.82 275.98 244.18 276.03 243.12 Z M 225.82 305.67 C 225.24 308.68 222 308.4 222 305.33 C 222 304.6 222.93 304 224.07 304 C 225.47 304 226.04 304.54 225.82 305.67 Z M 243.69 181.57 C 256.44 181.58 267.46 183.77 275.52 187.82 C 270.48 185.38 264.22 183.64 256.66 182.53 C 252.61 181.93 248.24 181.62 243.69 181.57 Z M 273.53 189.66 C 269.86 187.21 265.61 186.09 257.37 184.98 C 256.44 184.86 255.48 184.75 254.5 184.67 C 260.67 185.13 266.39 186.17 270 187.66 C 271.14 188.12 272.33 188.81 273.53 189.66 Z M 239.84 265.25 C 231.14 267.48 222.44 267.56 215.94 265.1 C 213.77 264.28 212.06 263.7 210.79 263.11 C 212.02 263.67 213.66 264.23 215.73 265 C 222.31 267.46 231.17 267.37 239.84 265.25 Z M 285.88 210.86 C 285.71 207.52 285.09 204.6 283.93 201.89 C 285.54 205.1 285.98 206.75 285.88 210.86 Z M 289.12 201.04 C 290.9 204.54 291.72 208.29 291.94 213.45 C 291.7 208.75 290.77 204.63 289.12 201.04 Z M 216.98 184 C 210.99 185.15 205.22 186.68 200.01 188.57 C 205.76 186.49 210.88 185.08 216.98 184 Z M 248.74 184.42 C 244.51 184.39 240.02 184.7 235.42 185.3 C 236.46 185.15 237.49 185.02 238.53 184.9 C 241.71 184.52 245.22 184.37 248.74 184.42 Z M 187.17 261.78 C 187.26 265.59 187.56 267.67 188.17 269.28 C 187.49 267.57 187.23 265.69 187.17 261.78 Z M 188.69 232.89 C 188.33 232.92 187.83 232.93 187.21 232.94 C 186.37 232.96 185.44 232.84 184.47 232.61 C 185.35 232.8 186.2 232.9 187 232.9 Z M 208.39 258.16 C 209.06 255.83 210.88 252.32 213.84 246.64 C 214.36 245.64 214.92 244.57 215.51 243.42 C 211.56 251.05 209.18 255.42 208.39 258.16 Z M 187.43 240.05 L 187.43 240.05 L 187.4 241.66 Z" stroke-linecap="round"/>
</g>
<g transform="matrix(4.6533 0 0 3.8699 480.4372 335.833)" id="599466">
<path style="stroke: none; stroke-width: 1; stroke-dasharray: none; stroke-linecap: butt; stroke-dashoffset: 0; stroke-linejoin: miter; stroke-miterlimit: 4; is-custom-font: none; font-file-url: none; fill: rgb(179,152,204); fill-rule: nonzero; opacity: 1;" transform=" translate(-251.3601, -251.4282)" d="M 185.22 230.49 C 177.94 227.18 177 226.01 177.24 220.59 C 177.35 218.07 177.77 216 178.19 216 C 178.6 216 178.68 215.33 178.37 214.51 C 177.51 212.27 189.42 201.02 196.72 197.18 C 202.04 194.39 208.27 191.9 214.93 189.87 C 212.81 190.54 210.69 191.27 208.59 192.05 C 205.51 193.2 203 194.34 203 194.57 C 203 194.6 203 194.63 203 194.65 C 202.99 194.73 202.99 194.8 203.02 194.84 C 203.17 195.07 204.16 194.77 210.27 192.86 C 210.66 192.74 211.07 192.62 211.5 192.48 C 224.31 188.5 244.18 186.42 256.94 187.72 C 262.75 188.31 268.4 189.07 269.5 189.41 C 270.6 189.75 269.52 189.07 267.1 187.91 C 263.09 185.98 257.87 184.86 251.89 184.51 C 252.76 184.55 253.64 184.6 254.5 184.67 L 254.5 184.67 C 255.48 184.75 256.44 184.86 257.37 184.98 C 265.61 186.09 269.86 187.21 273.53 189.66 C 275.93 191.36 278.36 193.73 280.41 196.35 C 280.17 196.12 279.96 196 279.81 196 C 279.18 196 277.95 195.38 277.08 194.62 C 276.21 193.86 272.55 192.51 268.94 191.62 C 249.89 186.92 218.48 193.12 200 205.22 C 184.6 215.31 178.44 227.27 186.75 230.93 C 187.81 231.4 188.61 231.86 189.15 232.27 Z M 201.11 269.57 L 205.33 263.14 L 210.18 265.59 C 215.57 268.32 221.79 269.89 228.29 270.34 C 224.11 270.35 221 270.46 221 270.62 C 221 270.8 222.46 271.37 224.25 271.88 C 232.34 274.22 245.02 272.47 255.5 267.57 C 263.19 263.97 265.35 261.64 258 264.87 C 251.66 267.66 246.53 269.2 240.56 269.89 C 248.18 268.81 255.7 266.27 262.25 262.32 C 263.19 261.75 264.09 261.19 264.87 260.67 C 268.87 258.18 269.82 258.05 271.91 259.01 C 273.33 259.66 279.19 261.73 284.93 263.62 C 302.12 269.25 310.92 273.99 312.56 279.39 C 311.54 277.3 308.89 275.19 306.15 274.52 C 304.69 274.17 297.29 271.62 289.69 268.86 C 280.32 265.46 275.51 264.16 274.69 264.82 C 274.04 265.35 270.8 267.18 267.5 268.87 L 261.5 271.96 L 268.31 271.98 C 269.55 271.98 270.6 272.02 271.47 272.1 C 270.61 272.09 269.59 272.12 268.4 272.21 C 259.52 272.84 249.74 277.26 242.88 283.13 C 245.19 281.03 247.88 278.95 250.94 276.92 L 255.38 273.97 L 251.94 274.74 C 250.05 275.16 243.1 275.5 236.5 275.5 C 225.5 275.5 224.01 275.27 218.63 272.75 C 215.4 271.24 212.25 270.02 211.63 270.03 C 211.01 270.05 209.15 272.41 207.5 275.27 C 205.6 278.56 203.5 280.81 201.77 281.42 C 199.32 282.28 198.6 281.93 194.67 277.94 C 193.84 277.09 193.1 276.32 192.43 275.59 C 193.04 275.9 193.71 276 194.56 276 C 196.3 276 197.92 274.41 201.11 269.57 Z M 215.44 260.81 C 214.07 264.08 214.09 264.14 217.27 265.52 C 216.75 265.36 216.23 265.19 215.73 265 C 213.66 264.23 212.02 263.67 210.79 263.11 C 209.58 262.55 208.78 261.98 208.38 261.21 C 208.36 261.15 208.33 261.1 208.3 261.04 C 209.18 260.72 210.24 259.82 210.57 258.77 C 210.96 257.54 213.97 250.9 217.25 244.02 C 220.54 237.13 223.66 230.6 224.18 229.5 C 224.88 228.04 224.6 228.16 223.17 229.94 C 222.13 231.23 217.15 240.34 212.98 248.29 C 213.74 246.83 214.58 245.22 215.51 243.42 C 220.33 234.11 226.49 223.27 229.2 219.33 C 235.71 209.88 244.04 202 247.52 202 C 248.86 202 249.59 201.66 249.72 201.13 C 250.42 202.2 251.84 203.52 253.16 204.28 C 256.86 206.4 256.75 207.6 252.78 208.39 C 248.86 209.18 239.99 217.99 234.5 226.55 C 229.82 233.86 217.34 256.29 215.44 260.81 Z M 267.78 313.04 C 273.02 312.01 277.77 310.75 282.25 309.18 C 280.94 309.68 279.61 310.15 278.28 310.6 C 274 312.03 270.31 313.38 270.08 313.6 C 268.21 315.4 285.55 311.39 294.41 307.97 C 312.3 301.08 321.34 292.26 318.39 284.58 C 317.94 283.39 317.04 284.12 314.79 287.51 C 316.33 284.9 317 282.21 317 279.11 C 317 273.78 316.84 273.46 311.67 268.45 C 311.64 268.42 311.62 268.4 311.59 268.37 C 312.39 269.1 313.24 269.89 314.17 270.79 C 326.05 282.13 326.65 286.95 317.41 296.93 C 308.45 306.6 289.02 316.37 272.42 319.55 C 257.52 322.4 247.86 320.5 240.27 313.24 C 239.02 312.04 237.97 310.99 237.1 310.04 C 239.18 311.75 242.06 313.05 245.72 313.91 C 251.8 315.34 257.2 315.13 267.78 313.04 Z M 287.07 237.87 C 287.54 236.93 287.98 235.93 288.32 235.04 C 290.26 230.97 292.46 229.63 300.46 228.81 C 298.92 229.17 298 229.66 298 230.2 C 298 230.76 299.35 230.86 301.25 230.44 C 303.04 230.05 306.75 229.39 309.5 228.99 L 314.5 228.25 L 310.21 228.15 C 317.23 227.96 319.7 229.04 320.94 232.32 C 321.39 233.52 321.38 234.76 320.85 236.13 C 321.2 234.64 319.88 234.03 316.75 233.81 C 312.95 233.53 297.46 236.06 296.67 237.09 C 296.49 237.32 295.09 239.98 293.54 243 C 291.99 246.02 289.63 249.93 288.29 251.68 C 288.12 251.91 287.95 252.13 287.79 252.33 C 287.04 253.28 286.55 253.91 286.61 254.48 C 286.71 255.41 288.26 256.17 292.55 257.9 C 292.25 257.78 291.95 257.66 291.63 257.54 C 281.39 253.53 277.19 251.44 277.79 250.64 C 278.26 250.01 280.29 247.44 282.3 244.92 C 283.12 243.9 284.03 242.61 284.89 241.27 C 285.82 239.98 286.61 238.77 287.07 237.87 Z M 248.58 306.71 C 245.11 305.85 243.26 304.33 241.45 301.57 C 240.35 299.89 240.15 297.86 240.66 295.68 C 240.36 298.11 240.94 299.52 241.76 297 C 242.02 296.17 244.88 292.95 248.11 289.83 C 255.29 282.89 266.66 277.96 275.22 278.07 C 279.09 278.12 279.97 278.37 278.5 279 C 277.4 279.47 275.26 279.89 273.75 279.93 C 269.11 280.05 258.51 285.76 253.15 291.04 C 246.21 297.87 244.44 304.51 248.58 306.71 Z M 289.12 201.04 C 287.61 197.76 285.49 194.93 282.73 192.51 C 289.36 197.79 294.93 205.04 296.94 211.55 C 298.07 215.21 299 219.25 299 220.52 C 299 222.76 299.28 222.83 309.88 223.16 L 320.76 223.5 L 322.1 224.82 C 319.91 223.81 316.19 223.5 310.15 223.5 C 304.29 223.5 297.81 223.86 295.75 224.3 L 292 225.09 L 292 216.67 C 292 216.58 292 216.48 292 216.39 L 292 216.39 C 292 216.26 292 216.13 292 216 C 292 215.13 291.98 214.28 291.94 213.45 C 291.72 208.29 290.9 204.54 289.12 201.04 Z M 192.66 269.25 C 191.62 265.42 191.9 254 193.04 254 C 194.76 254 200 259.28 199.98 261 C 199.98 261.09 199.96 261.21 199.94 261.35 C 199.82 260.64 199.37 259.97 198.66 259.7 C 197.69 259.33 197.44 259.86 197.77 261.58 C 198.02 262.9 198.63 263.73 199.11 263.43 C 199.24 263.35 199.35 263.26 199.44 263.17 C 199.09 264.24 198.58 265.53 198.03 266.75 C 196.04 271.14 193.49 272.32 192.66 269.25 Z M 320.99 240.85 C 322.99 237.8 324.95 233 324.97 230.4 C 324.98 229.1 324.85 228.03 324.48 227.15 L 325.85 228.5 C 329.98 232.55 330.95 234.15 330.97 236.91 C 331 240.73 326.95 248.42 324.38 249.41 C 321.57 250.49 321.51 249.12 324.25 246.24 C 327.57 242.75 328.5 239.07 326.7 236.6 C 325.38 234.8 325.12 234.96 322.1 239.35 C 321.74 239.87 321.37 240.38 320.99 240.85 Z M 188.69 232.89 L 189.77 232.89 C 190.23 233.55 189.76 234 188.25 234.04 C 187.29 234.06 188.59 235.07 191.14 236.29 C 195.41 238.32 195.68 238.66 194.5 240.5 C 193.8 241.57 192.95 243.41 192.57 244.64 C 192.65 244.11 192.77 243.52 192.92 242.84 C 193.45 240.48 193.76 238.43 193.61 238.27 C 193.45 238.12 192 238.45 190.38 239.02 L 187.43 240.05 L 187.43 240.05 L 187.4 241.65 L 187.4 241.66 L 187.29 247.87 C 187.19 245.74 186.96 244.31 186.61 243.75 C 185.81 242.47 185.84 241.49 186.69 240.12 C 187.71 238.49 187.42 238 184.43 236.39 C 182.54 235.38 181 234.29 181 233.97 C 181 233.66 178.95 231.3 176.44 228.71 C 178.78 230.58 181.74 232.03 184.47 232.61 C 185.44 232.84 186.37 232.96 187.21 232.94 C 187.83 232.93 188.33 232.92 188.69 232.89 Z M 192.45 246.45 C 192.78 246.46 193.46 246.12 194.69 245.48 C 197.76 243.88 200 243.57 200 244.76 C 200 245.17 199.56 247.06 199.01 248.95 C 198.25 251.61 198.37 252.91 199.54 254.7 C 199.82 255.12 200.09 255.49 200.35 255.79 C 198.37 254.8 195.94 252.72 194.02 250.03 C 193.01 248.61 192.53 247.68 192.45 246.45 Z M 199 275.55 C 199 278.58 201.91 276.82 203.99 272.52 C 207.34 265.6 206.18 263.47 202.24 269.3 C 200.46 271.94 199 274.75 199 275.55 Z M 233.64 279.31 C 233.97 279.64 233.54 280.6 232.68 281.46 C 231.83 282.32 230.88 282.61 230.57 282.12 C 229.92 281.06 232.78 278.44 233.64 279.31 Z M 248.9 283.76 C 254.44 278.86 261.93 274.9 269.04 274.22 C 271.26 274.01 272.81 273.72 273.73 273.41 C 272.93 273.71 271.44 273.99 269.22 274.2 C 262.88 274.81 254.82 278.9 248.9 283.76 Z M 288.73 301.9 C 285.07 303.35 281.13 304.63 277.05 305.69 C 270.51 307.38 267.09 307.91 261.55 307.84 C 266.73 307.6 272.35 306.83 277.17 305.61 C 281.25 304.57 285.13 303.32 288.73 301.9 Z M 173.64 225.82 L 171.75 223.87 L 172.22 216.53 C 172.63 210.02 173.1 208.63 176.38 204.16 C 173.12 208.6 172.63 210.03 172.24 216.35 C 171.87 222.2 172.04 223.67 173.64 225.82 Z M 236.04 291.15 C 235.8 291.58 235.58 292.01 235.37 292.44 C 233.55 296.37 232.8 299.83 233.12 302.8 C 233.04 302.17 233.01 301.52 233.01 300.82 C 233.02 297.65 234.05 294.41 236.04 291.15 Z M 203.11 256.35 C 203.32 256.08 203.51 255.72 203.67 255.25 C 203.79 254.9 204.35 253.62 205.21 251.71 C 204.44 253.49 204 254.63 204 254.84 C 204 255.68 203.67 256.17 203.11 256.35 Z M 244.75 263.77 C 248.26 262.45 251.92 260.75 255.07 258.98 C 251.81 260.91 248.32 262.52 244.75 263.77 Z M 187.17 261.78 C 187.2 263.73 187.28 265.17 187.43 266.34 C 187.08 264.22 187.03 261.7 187.14 258.35 C 187.13 259.63 187.14 260.77 187.17 261.78 Z M 305.14 263.41 C 302.94 262.17 300.11 260.92 295.82 259.19 C 296.49 259.46 297.21 259.74 297.97 260.04 C 300.95 261.23 303.13 262.21 305.14 263.41 Z M 316.72 242.08 C 316.2 243.04 316.24 243.74 316.74 243.95 C 315.92 243.81 315.88 243.31 316.72 242.08 Z M 216.98 184 C 216.43 184.1 215.9 184.2 215.37 184.3 C 220.58 183.23 225.94 182.47 231.25 182.04 C 226.47 182.45 221.66 183.11 216.98 184 Z M 241.06 197.09 C 239.62 197.16 238.22 197.49 237.01 198.06 C 237.65 197.72 238.24 197.48 238.76 197.35 C 239.47 197.17 240.25 197.09 241.06 197.09 Z M 317.3 244 C 317.53 243.97 317.8 243.88 318.11 243.74 C 317.85 243.91 317.62 244 317.45 244 C 317.4 244 317.35 244 317.3 244 Z M 319.22 238.93 C 318.87 239.4 318.46 239.89 318.01 240.4 C 318.17 240.22 318.33 240.02 318.5 239.82 C 318.76 239.51 319 239.21 319.22 238.93 Z M 275.73 187.93 C 275.66 187.89 275.59 187.86 275.52 187.82 C 274.87 187.5 274.2 187.18 273.51 186.88 C 273.77 186.99 274.02 187.1 274.27 187.22 C 274.76 187.44 275.24 187.68 275.73 187.93 Z M 259.65 256.09 C 260.06 255.78 260.45 255.48 260.81 255.19 C 260.48 255.46 260.14 255.73 259.79 256 C 259.74 256.03 259.7 256.06 259.65 256.09 Z" stroke-linecap="round"/>
</g>
</svg>